<svg width="447" height="363" viewBox="0 0 447 363" fill="none" xmlns="http://www.w3.org/2000/svg">
<path fill-rule="evenodd" clip-rule="evenodd" d="M208.663 0.440957C166.16 2.87696 125.668 21.424 94.1124 52.912C65.5054 81.457 48.6754 115.267 42.0824 157.437C40.8114 165.566 40.5554 172.227 40.9494 186.937C41.5274 208.547 43.6494 220.677 50.3014 240.376C53.8274 250.821 54.4244 251.9 57.1634 252.786C60.4414 253.846 93.1354 254.298 94.1364 253.297C94.4764 252.957 93.4104 250.399 91.7674 247.613C86.8334 239.246 85.4254 233.895 85.4964 223.778C85.5374 217.897 86.1154 213.291 87.1114 210.906C89.4574 205.292 89.0794 203.725 84.7134 200.969C82.5414 199.597 78.9334 195.779 76.6954 192.484C74.4584 189.189 71.0604 185.243 69.1454 183.715C65.3074 180.653 64.9124 178.79 67.1744 174.416C68.7184 171.429 75.1144 166.437 77.3954 166.437C78.9754 166.437 79.0414 170.512 77.5164 173.861C76.5224 176.041 76.6724 176.624 78.6344 178.213C80.1924 179.474 81.1684 181.743 81.7584 185.472C82.6274 190.972 84.8024 194.904 88.0564 196.86C89.5164 197.737 90.1574 197.476 91.5064 195.459C95.8204 189.006 100.184 187.699 104.936 191.437C106.49 192.66 108.993 193.437 111.375 193.437C115.026 193.437 118.44 195.155 126.27 200.936C128.333 202.459 128.389 202.378 128.934 197.1C130.227 184.568 137.196 175.58 147.388 173.299L152.853 172.076L152.008 157.507C150.876 137.983 151.03 133.504 152.963 129.798L154.6 126.659L150.189 125.548C143.69 123.911 143.019 124.041 132.663 128.937C127.438 131.407 122.344 133.43 121.343 133.432C120.342 133.435 117.516 134.818 115.062 136.507C103.438 144.504 92.2024 146.969 80.8774 144.007C77.4204 143.103 74.1574 142.632 73.6274 142.959C73.0974 143.287 72.6634 145.028 72.6634 146.829C72.6634 151.494 71.4994 152.043 69.7014 148.226C67.7314 144.043 64.8144 143.598 60.9074 146.886C55.5284 151.411 54.7244 150.126 56.7474 140.236C59.2184 128.156 66.9894 110.245 74.8834 98.437C80.3824 90.212 81.2334 89.335 83.0364 90.027C84.2364 90.487 84.6634 90.072 84.6634 88.445C84.6634 87.232 86.0134 84.978 87.6634 83.437C89.6684 81.564 90.6634 79.669 90.6634 77.723C90.6634 71.342 100.889 66.356 104.388 71.031C105.748 72.847 106.006 72.725 109.865 68.437C113.608 64.279 114.001 64.08 115.039 65.821C117.737 70.345 120.976 73.385 124.248 74.465C129.656 76.25 128.311 77.868 117.663 82.386L113.163 84.296L118.938 84.366C127.084 84.466 133.36 86.984 147.456 95.806C163.358 105.759 169.457 108.437 176.222 108.437C179.143 108.437 182.687 108.876 184.098 109.412C185.819 110.066 187.568 110.032 189.413 109.306C190.925 108.712 195.192 108.161 198.895 108.081C205.403 107.942 205.751 108.06 209.325 111.634C213.457 115.765 213.244 114.337 213.523 139.734L213.663 152.531L222.913 147.764C228.001 145.142 234.188 141.042 236.663 138.654C239.138 136.266 242.599 133.699 244.354 132.95C246.759 131.924 247.8 130.643 248.579 127.75C249.235 125.313 251.447 122.105 254.638 118.962C257.402 116.24 259.663 113.712 259.663 113.346C259.663 112.979 258.298 112.114 256.629 111.423C251.494 109.296 249.663 105.997 249.663 98.874C249.663 90.669 251.179 88.949 257.595 89.872C270.221 91.688 271.663 91.738 271.663 90.361C271.663 89.615 269.559 86.869 266.986 84.258C263.67 80.891 262.725 79.367 263.736 79.02C264.521 78.75 267.863 77.774 271.163 76.85C274.463 75.926 279.289 74.064 281.888 72.712C284.487 71.36 288.537 69.997 290.888 69.684C293.239 69.37 295.62 68.494 296.179 67.736C297.493 65.952 305.405 67.528 312.63 71.014C318.881 74.029 320.741 74.048 323.489 71.123C326.263 68.17 326.221 67.31 323.163 64.437C321.599 62.967 320.663 60.991 320.663 59.156C320.663 56.884 320.304 56.361 319.07 56.834C318.194 57.17 316.476 57.697 315.252 58.004C313.442 58.458 313.108 59.111 313.46 61.509C314.423 68.068 308.788 69.351 302.795 63.937C299.773 61.207 298.067 60.436 295.042 60.433C290.781 60.429 284.663 57.27 284.663 55.074C284.663 52.825 287.41 51.178 292.507 50.373C295.128 49.958 300.311 48.183 304.026 46.428C311.916 42.7 314.892 42.868 323.681 47.537C332.239 52.084 339.635 58.385 348.044 68.297C356.853 78.68 361.616 86.069 370.146 102.589L376.163 114.24L381.163 109.848L386.163 105.456L380.847 95.348C368.604 72.068 348.731 49.417 326.663 33.589C313.88 24.42 294.286 14.362 279.857 9.56096C255.191 1.35396 235.884 -1.11904 208.663 0.440957ZM223.913 16.095C230.925 16.453 236.663 17.069 236.663 17.465C236.663 17.86 232.95 19.654 228.413 21.45C212.002 27.948 204.902 32.411 210.913 32.452C212.151 32.461 213.768 32.851 214.508 33.32C216.187 34.384 213.748 35.046 204.663 35.99C193.415 37.16 186.498 39.125 184.239 41.792C182.897 43.376 180.218 44.678 176.663 45.474C169.208 47.143 166.267 48.779 162.983 53.084C158.926 58.403 155.162 59.713 148.725 58.043C139.797 55.727 135.399 48.881 141.155 46.259C144.602 44.688 142.776 42.726 137.069 41.871C134.632 41.505 132.396 40.814 132.1 40.335C131.404 39.209 145.134 30.244 154.163 25.929C173.576 16.652 189.845 14.358 223.913 16.095ZM441.036 58.687C438.332 61.575 435.229 65.083 434.141 66.484C431.391 70.025 430.896 70.237 422.56 71.444C408.055 73.545 399.663 76.117 399.663 78.463C399.663 79.007 403.306 79.489 407.913 79.555C412.451 79.62 417.431 79.958 418.982 80.305L421.8 80.937L415.982 87.617C404.263 101.071 380.382 122.365 360.163 137.388C354.663 141.474 349.735 145.182 349.213 145.627C348.69 146.073 353.634 146.437 360.198 146.437H372.133L390.186 128.115C400.115 118.038 412.675 104.103 418.098 97.147C423.521 90.192 428.242 84.677 428.589 84.891C428.937 85.106 430.519 87.998 432.106 91.317C433.692 94.637 435.367 97.12 435.827 96.836C436.961 96.135 436.867 89.29 435.619 81.598L434.591 75.259L438.99 67.598C444.288 58.372 446.848 53.437 446.334 53.437C446.124 53.437 443.74 55.799 441.036 58.687ZM108.902 91.772C100.933 94.662 94.7184 102.27 88.5654 116.667L84.7144 125.677L87.4384 125.122C92.8224 124.027 99.3534 120.436 105.083 115.422C111.428 109.869 115.517 106.946 116.091 107.552C116.853 108.355 98.2104 124.077 92.9074 127.102C86.8674 130.549 76.3124 133.029 71.9244 132.033C66.8094 130.872 72.2854 134.148 79.4404 136.529C84.4084 138.182 87.4724 138.575 92.5444 138.21C101.202 137.586 107.138 134.521 118.732 124.688C130.131 115.021 134.772 111.437 135.893 111.437C136.374 111.437 134.156 113.628 130.965 116.306C127.774 118.983 124.038 122.414 122.663 123.93L120.163 126.685L122.602 125.934C123.943 125.52 128.645 123.44 133.049 121.31C141.903 117.028 144.065 116.745 151.254 118.926C158.167 121.023 165.786 120.795 174.055 118.244L181.163 116.051L174.556 115.34C166.681 114.494 158.136 110.626 141.708 100.473C126.149 90.856 117.645 88.601 108.902 91.772ZM308.81 93.568C309.661 94.871 313.014 98.09 316.26 100.721C319.507 103.353 322.307 105.924 322.484 106.434C322.661 106.945 321.697 107.641 320.342 107.981C317.518 108.69 314.985 107.519 305.398 101.072C293.462 93.044 287.489 93.404 279.495 102.631C276.218 106.414 272.512 109.501 269.817 110.693C267.164 111.867 265.811 112.985 266.369 113.543C267.53 114.704 290.311 111.829 296.023 109.801C310.813 104.55 322.778 108.735 323.179 119.3C323.4 125.138 325.873 132.44 327.62 132.415C328.469 132.403 329.838 130.941 330.663 129.165C332.574 125.053 334.694 125.207 344.372 130.162L351.581 133.853L355.372 130.787C357.457 129.101 359.324 126.899 359.522 125.895C360.014 123.388 357.005 121.437 352.646 121.437C348.898 121.437 346.16 119.355 343.742 114.666C341.308 109.949 345.466 109.177 355.824 112.424C367.088 115.955 367.973 114.988 361.606 106.097C357.647 100.568 351.085 95.058 349.573 95.993C349.157 96.25 348.529 97.769 348.178 99.369C347.062 104.45 343.389 107.437 338.257 107.437H333.756L335.381 110.269C337.245 113.516 336.557 116.437 333.928 116.437C332.805 116.437 330.842 114.283 328.699 110.7C323.9 102.677 318.1 96.692 312.252 93.729L307.262 91.2L308.81 93.568ZM305.163 114.538C295.399 116.291 280.297 123.403 250.163 140.438C207.393 164.616 186.489 173.206 157.903 178.351C151.709 179.466 145.795 180.831 144.76 181.385C141.683 183.032 137.812 188.239 136.707 192.218C135.109 197.972 135.346 216.378 137.026 217.023C140.608 218.397 170.722 211.524 187.781 205.439C202.234 200.283 211.983 195.426 239.663 179.593C272.353 160.895 286.787 154.925 308.913 150.952L318.663 149.201V139.541C318.663 126.298 317.749 125.016 308.769 125.67C298.737 126.401 285.242 132.729 243.163 156.434C220.354 169.283 200.027 178.539 183.163 183.755C174.443 186.452 156.159 190.435 152.471 190.441C149.887 190.445 143.878 193.733 141.81 196.274C140.613 197.745 140.541 197.648 141.191 195.437C142.175 192.088 145.364 187.667 147.697 186.419C148.74 185.861 154.896 184.486 161.378 183.365C179.243 180.273 196.863 174.434 217.715 164.697C226.644 160.527 235.549 155.739 263.163 140.258C272.513 135.017 284.171 128.842 289.07 126.536C299.312 121.716 311.773 118.02 314.674 118.941C317.131 119.72 317.26 118.263 314.913 116.233C312.508 114.152 309.867 113.693 305.163 114.538ZM187.88 116.969C177.924 120.361 163.697 127.657 160.663 130.926C158.319 133.453 158.175 134.224 158.363 143.279C158.473 148.591 158.856 157.591 159.215 163.279L159.868 173.621L163.516 172.966C171.733 171.491 191.747 164.941 202.287 160.279L206.663 158.343V142.89V127.437H204.212C200.817 127.437 191.503 129.947 183.163 133.11C175.601 135.979 172.422 137.693 168.913 140.796L166.663 142.786V140.534C166.663 137.022 171.438 133.115 180.163 129.488C189.247 125.711 200.056 122.437 203.441 122.437C206.471 122.437 207.268 120.01 205.25 116.929C203.084 113.624 197.663 113.637 187.88 116.969ZM388.786 140.813C382.313 147.329 381.588 148.429 382.561 150.247C385.155 155.093 384.036 157.602 375.919 165.141L368.163 172.344L385.913 172.391L403.663 172.437L403.645 169.687C403.589 161.326 398.297 133.437 396.766 133.437C396.407 133.437 392.816 136.756 388.786 140.813ZM334.663 154.573C315.392 156.546 295.182 161.711 277.686 169.133C264.358 174.788 255.667 179.518 238.303 190.57C200.315 214.748 165.811 225.019 110.648 228.568C100.206 229.24 91.6634 230.123 91.6634 230.53C91.6634 230.938 92.5474 233.333 93.6274 235.854C95.4724 240.157 95.8254 240.437 99.4194 240.437C112.846 240.437 143.766 234.755 181.223 225.404C196.573 221.572 209.589 218.451 210.147 218.469C210.706 218.486 204.188 220.895 195.663 223.822C187.138 226.749 170.938 232.774 159.663 237.212C136.219 246.438 117.622 252.754 108.772 254.495C105.412 255.156 102.685 256.201 102.712 256.817C102.738 257.433 104.465 261.987 106.55 266.937L110.34 275.937L136.251 276.62C159.73 277.238 192.729 278.941 201.663 279.995C222.42 282.444 240.668 284.933 252.568 286.937C260.491 288.272 267.277 289.175 267.649 288.946C268.02 288.716 268.898 285.92 269.6 282.733C271.655 273.398 276.372 259.363 281.174 248.301C294.128 218.459 312.43 195.688 337.663 178.019C338.488 177.441 334.605 181.461 329.033 186.953C308.264 207.423 293.582 232.731 287.867 257.913C285.715 267.396 285.72 285.668 287.875 290.583C289.438 294.146 289.7 294.28 299.319 296.436C304.733 297.65 312.242 299.479 316.005 300.502C321.954 302.118 322.771 302.16 322.257 300.82C318.861 291.972 317.355 282.092 317.395 268.937C317.432 256.67 317.81 253.513 320.447 243.437C327.786 215.392 343.844 188.313 367.107 164.754L377.163 154.57L373.663 154.015C368.606 153.212 344.599 153.556 334.663 154.573ZM356.503 187.187C348.592 197.784 346.794 200.41 342.805 207.187L339.715 212.437H370.516H401.317L402.497 204.687C403.145 200.425 403.673 192.775 403.67 187.687L403.663 178.437H383.349H363.035L356.503 187.187ZM22.0844 208.104C17.0634 215.921 6.28839 238.377 3.71139 246.395C-5.53061 275.143 2.49339 293.078 27.7234 300.068C32.5834 301.415 37.9654 301.863 49.6634 301.895C71.8904 301.955 89.4034 298.814 122.663 288.801C139.9 283.612 139.91 283.546 123.524 283.489C111.1 283.445 108.566 283.172 106.779 281.687C105.621 280.725 102.926 275.887 100.79 270.937C96.9414 262.02 96.8744 261.939 93.5344 262.16C78.8254 263.134 61.5704 262.672 55.4044 261.141C30.9434 255.064 20.8764 239.085 25.1064 213.045C25.9894 207.604 26.5144 202.954 26.2714 202.712C26.0294 202.47 24.1454 204.896 22.0844 208.104ZM333.864 224.687C330.264 233.409 326.828 244.152 326.112 248.928L325.436 253.437H357.426H389.417L391.434 248.687C393.497 243.831 399.663 222.816 399.663 220.641C399.663 219.727 391.991 219.437 367.847 219.437H336.031L333.864 224.687ZM324.152 263.5C323.368 268.142 324.319 280.919 326.018 288.57L327.169 293.754L346.047 293.929L364.924 294.103L369.358 288.393C373.845 282.616 379.849 272.873 384.276 264.187L386.697 259.437H355.768H324.839L324.152 263.5ZM276.12 284.106C275.177 288.413 273.958 292.5 273.412 293.187C272.646 294.151 273.501 294.437 277.148 294.437C281.218 294.437 281.785 294.196 281.214 292.709C280.849 291.759 280.164 287.896 279.69 284.126C279.217 280.355 278.606 277.046 278.332 276.773C278.059 276.5 277.064 279.8 276.12 284.106ZM154.663 286.02C152.738 286.783 146.888 288.96 141.663 290.857L132.163 294.305L193.08 294.371C226.584 294.407 253.809 294.26 253.58 294.043C252.337 292.868 212.1 287.816 188.791 285.907C167.459 284.161 159.282 284.188 154.663 286.02ZM98.7644 303.339L88.3654 305.978L97.2644 314.313C102.159 318.897 109.845 325.309 114.345 328.561L122.526 334.475L222.117 334.447L321.707 334.419L329.368 328.753C337.521 322.724 352.633 309.079 357.13 303.687L359.841 300.437H344.959H330.077L329.12 303.687C327.36 309.666 325.117 309.82 307.663 305.156L292.163 301.015L200.663 300.858L109.163 300.7L98.7644 303.339ZM145.663 346.808C158.605 352.823 171.422 357.193 186.163 360.615C195.299 362.736 198.453 362.936 222.663 362.926C248.099 362.915 249.609 362.805 260.268 360.192C266.376 358.695 275.826 355.92 281.268 354.026C290.743 350.728 308.663 342.776 308.663 341.87C308.663 341.632 269.401 341.443 221.413 341.45L134.163 341.464L145.663 346.808Z" fill="white"/>
</svg>
